<svg xmlns="http://www.w3.org/2000/svg" version="1.0" viewBox="0 0 4 4"><path fill="#099" d="M2 1 L3 2 L2 3 L1 2 Z"/><path fill="#088" d="M2 1 L3 2 L2 2 Z"/><path fill="#077" d="M2 2 L3 2 L2 3 Z"/><g fill="#088"><path d="M2 .5 L2.25 .75 L1.75 .75 Z"/><path d="M3.5 2 L3.25 2.25 L3.25 1.75 Z"/><path d="M2 3.5 L1.75 3.25 L2.25 3.25 Z"/><path d="M.5 2 L.75 2.25 L.75 1.75 Z"/></g><g fill="#099"><path d="M2.5 1 L3 1 L3 1.5 Z"/><path d="M2.5 3 L3 3 L3 2.5 Z"/><path d="M1.5 1 L1 1 L1 1.5 Z"/><path d="M1.5 3 L1 3 L1 2.5 Z"/></g></svg>